<?xml version="1.0" encoding="utf-8"?>
<!-- Generator: Adobe Illustrator 24.1.2, SVG Export Plug-In . SVG Version: 6.00 Build 0)  -->
<svg version="1.1" id="Calque_2" xmlns="http://www.w3.org/2000/svg" xmlns:xlink="http://www.w3.org/1999/xlink" x="0px" y="0px"
	 viewBox="0 0 300 300" style="enable-background:new 0 0 300 300;" xml:space="preserve">
<style type="text/css">
	.st0{fill:#422100;}
	.st1{fill:#FF7C00;}
	.st2{fill:#2860DD;}
	.st3{fill:#009245;}
</style>
<polyline class="st0" points="-4.71,114.95 293.15,75.72 301.16,75.72 306.04,164.31 -7.28,166.36 "/>
<path class="st0" d="M6.84,114.27h12.29c0,0,0.78,0.51,11.5-3.32s31.37-12,31.37-12l4.44-2.55h3.4l1.31-1.79h2.88
	c0,0,2.35-2.04,1.83-2.81c-0.52-0.77,2.09-1.53,4.97-1.53c2.88,0,6.01-1.53,7.06-1.53c1.05,0,16.73-5.87,16.73-5.87
	s15.16-4.6,19.87-5.36c4.71-0.77,9.41-2.81,14.12-4.6c4.71-1.79,10.28-7.91,10.28-7.91s3.31-2.55,4.88-3.83
	c1.57-1.28,4.71-1.02,12.55-1.28c7.84-0.26,32.67,0,32.67,0l33.72,1.53l20.91,3.06l3.66,2.3l10.72,3.83c0,0,10.72,1.79,11.76,2.04
	c1.05,0.26,9.67,2.3,9.67,2.3l11.76,0.77L-4.71,114.95L6.84,114.27z"/>
<polygon class="st0" points="302.43,164.34 -4.71,166.36 301.16,75.72 "/>
<path class="st1" d="M184.54,75.46l-7.62,8.34l-16.38-0.43v0.85h-2.53v-1.11c0,0,1.31-1.19,1.92-0.94c0.61,0.26,0.09,0,2-2.55
	s4.01,0,4.01,0l-1.13,2.04l3.22,0.09l1.57-0.26l1.13,0.17l1.13-0.09l5.75-6.13h2.18l-5.23,6.3l1.92,0.09l5.92-6.38"/>
<polygon class="st1" points="207.06,88.74 200.79,95.5 198.7,95.5 205.36,88.74 "/>
<polyline class="st1" points="133.45,95.04 125.95,95.04 126.29,94.07 133.35,94.07 "/>
<path class="st1" d="M202.88,88.74l-6.53,6.77l-1.96,1.4l-2.74-0.64l-2,0.64c0,0-0.22,1.02-1.52,2.04c-1.31,1.02-7.97,0-7.97,0
	l1.7-1.91l4.44,0.26c0,0,2.48-0.26,2.22-1.79h-3.96l3.96-4.6l5.31,0.13l-2.31,3.57l3.09,0.09l6.1-5.96H202.88z"/>
<path class="st1" d="M182.32,95.5l3.66-4.64h-5.14l2.57-3.66h-2.57l-5.31,6.04l-2.61,0.09l-0.96,0.09l-1.92,2.09
	c0,0-0.61,0.47-1.83,0.55s-4.18,0-4.18,0l0.96-1.36l-2.35,0.09l-1.31,2.3c0,0,0.26,0.26,0.87,0.94h1.39h4.18c0,0,3.83-0.6,3.92-1.28
	l1.13-1.23H182.32z"/>
<polyline class="st1" points="167.51,93.08 169.25,93.08 169.86,92.12 167.51,92.12 166.98,92.61 "/>
<polygon class="st1" points="158.79,87.21 150.34,95.04 148.51,95.04 156.79,87.21 "/>
<path class="st1" d="M155.22,87.21l-8.02,7.83h-13.33c0,0-0.44,1.13-0.52-0.96h-7.06l0.44-1.47l7.23,0.01l0.52,0l1.74-0.01
	l5.58-5.39h1.92l-5.23,5.39h5.14l1.57-1.9h1.83l-1.22,1.9h1.39l5.66-5.39H155.22z"/>
<polygon class="st1" points="136.92,87.21 133,89.84 133.96,92.61 134.96,92.61 134.96,90.44 138.49,88.23 "/>
<path class="st2" d="M-4.71,137.49c0,0,45.53-1.7,57.38,0c11.85,1.7,44.61,3.74,46.35,5.45c1.74,1.7,12.55,2.72,12.9,4.09
	c0.35,1.36,1.05,2.38,0,3.74c-1.05,1.36-5.58,2.72-9.76,3.4S17.73,169.49-4.71,165.75"/>
<path class="st1" d="M143.63,92.6c0,0-0.96-0.8,0-1.73c0.96-0.94,1.57-0.6,1.57-0.6s2.79,0,1.83,0.43c0,0,1.35-0.06,0.2,0.71
	c0,0,0.32,1.06-0.81,1.2"/>
<polygon class="st1" points="189.64,75.46 182.06,83.8 179.44,83.8 186.24,75.46 "/>
<polyline class="st0" points="303.95,75.72 302.43,135.38 298.72,75.72 "/>
<g>
	<path class="st3" d="M147.07,234.14l15.59-61.3c-2.95,2.58,21.97,71.18,5.07,61.3c-0.01,0-5.59-29.06-5.59-29.06l-8.18,29.06"/>
	<path class="st3" d="M159.52,214.36c4.41-0.78,4.98,1.02,5.36,5.03c0,0-6.78,0-6.78,0"/>
</g>
<g>
	<path class="st3" d="M44.72,233.55l16.61-61.3c-3.14,2.58,23.41,71.18,5.4,61.3c-0.01,0-5.96-29.06-5.96-29.06l-8.72,29.06"/>
	<path class="st3" d="M57.99,213.77c4.7-0.78,5.3,1.02,5.71,5.03c0,0-7.22,0-7.22,0"/>
</g>
<path class="st1" d="M175.42,172.83h38.37l-31.1,55.13c4.25,1.81,36.42-5.23,31.1,6.17c0,0-38.37,0-38.37,0
	c-4.44-6.67,23.26-48.42,25.85-54.31c0,0-25.85,0-25.85,0"/>
<path class="st3" d="M111.87,172.47c-3.23-0.82-19.65-4.68-29.93,4.31c-16.81,14.69-6.21,55.36,10.04,58.08
	c5.4,0.9,11.62-0.85,18.4-6.48c4.54-5.28,4.09-12.27,0.46-15.4c-3.47-2.99-8.73-1.5-9.19-1.36c-2.33,4.45-1.55,8.46,0.29,9.38
	c1.91,0.96,4.92-1.45,5.11-1.6c0.2,3.75-0.94,5.22-1.68,5.85c-3.37,2.86-11.96-0.22-21.42-8.18c-0.89-3.89-1.4-7.17-1.7-9.53
	c-1.22-9.47-1.91-15.36,1.36-20.77c0.47-0.78,1.74-2.73,3.97-4.5c8.11-6.41,19.5-2.88,21.22-2.31"/>
<path class="st3" d="M107.19,211.62c6.98-1.03,9.01-0.33,9.4,0.64c0.42,1.02-0.99,2.33-1.07,5.48c-0.03,1.06,0.1,1.94,0.22,2.51
	c-2.76-0.29-5.51-0.57-8.27-0.86"/>
<path class="st3" d="M119.55,172.83c3.91,2-9.25,69.91,7.95,61.3c0.2-41.14-0.87-61.78-3.21-61.92c-0.24-0.01-0.5,0.19-0.77,0.62"/>
<path class="st3" d="M137.96,173.33c3.91,2-9.25,69.91,7.95,61.3c0.2-41.14-0.87-61.78-3.21-61.92c-0.24-0.01-0.5,0.19-0.77,0.62"/>
<path class="st3" d="M138.38,172.79c3.44,2-8.15,69.91,7,61.3c-9.53,2.13,2.18-65.08-3.5-61.3"/>
<path class="st3" d="M122.23,204.39c2.63,1.38,19.49-3.81,15.86,4.58c0,0-16.15-3.27-16.66,0"/>
<path class="st3" d="M124.37,201.65c2.63,2,19.49-5.53,15.86,6.64c0,0-16.15-4.74-16.66,0"/>
<path class="st1" d="M241.53,175.59c-16.38-1.96-3.1,56.48-3.1,56.48c-26.84,7.58-6.31-53.79-12.41-55.22
	C222.71,174.43,239.76,176.02,241.53,175.59z"/>
<path class="st1" d="M241.47,226.26c1.5,4.39-25.56,0-25.56,0c-4.81,14.35,22.33,5.35,25.62,7.72"/>
<path class="st1" d="M241.47,180.69c1.5-4.38-25.56,0-25.56,0c-4.81-14.32,22.33-5.34,25.62-7.7"/>
<path class="st1" d="M227.8,228.38c-0.84,1.68,5.03,2.12,3.95,0"/>
<path class="st1" d="M231.54,178.24l4.39-3.31c-1.79,0.85-10.07-1.09-8.13,3.66"/>
<path class="st1" d="M230.76,224.89c-1.64,0.99,6.3,8.9-0.49,7.38c0,0-2.47-10.01-2.47-10.01c-0.12-0.23-0.54,11.78-2.11,10.06"/>
<path class="st3" d="M39.11,232.63c0,0-8.11-58.05,0-59.21s-15.75-2.14-15.75-2.14s15.27,61.59,0,61.43"/>
<path class="st3" d="M39.09,173.68c15.49,10,17.45-10.72,14.89,8.24c-11.7-2.78-37.5-6.72-49.52-8.24c0,0,0.74-5.13-4.47-8"/>
<path class="st3" d="M40.79,171.32"/>
<path class="st3" d="M37.07,172.07c4.24,0.03,14.47,4.12,18.08,0c0.89,5.89-9.12,4.26-12.29,5.4"/>
<g>
	<path class="st1" d="M259.69,232.63c0,0,8.36-58.05,0-59.21c-8.36-1.16,16.22-2.14,16.22-2.14s-15.73,61.59,0,61.43"/>
	<path class="st1" d="M260,173.52c-16.12,10.55-18.16-11.31-15.5,8.69c12.18-2.94,39.02-7.09,51.52-8.69c0,0-0.78-5.42,4.65-8.44"/>
	<path class="st1" d="M257.96,171.32"/>
	<path class="st1" d="M261.79,172.07c-4.37,0.03-14.92,4.12-18.63,0c-0.92,5.89,9.4,4.26,12.66,5.4"/>
</g>
</svg>
