<?xml version="1.0" encoding="utf-8"?>
<!-- Generator: Adobe Illustrator 24.1.2, SVG Export Plug-In . SVG Version: 6.00 Build 0)  -->
<svg version="1.1" id="Calque_2_1_" xmlns="http://www.w3.org/2000/svg" xmlns:xlink="http://www.w3.org/1999/xlink" x="0px"
	 y="0px" viewBox="0 0 300 300" style="enable-background:new 0 0 300 300;" xml:space="preserve">
<style type="text/css">
	.st0{fill:#009245;}
	.st1{fill:#FF7C00;}
	.st2{fill:#E27113;}
</style>
<g>
	<g>
		<path class="st0" d="M147.1,268.6l15.6-78.1c-2.9,3.3,22,90.7,5.1,78.1c0,0-5.6-37-5.6-37l-8.2,37"/>
		<path class="st0" d="M159.5,243.4c4.4-1,5,1.3,5.4,6.4h-6.8"/>
	</g>
	<g>
		<path class="st0" d="M44.7,267.8l16.6-78.1c-3.1,3.3,23.4,90.7,5.4,78.1c0,0-6-37-6-37l-8.7,37"/>
		<path class="st0" d="M58,242.6c4.7-1,5.3,1.3,5.7,6.4h-7.2"/>
	</g>
	<path class="st1" d="M175.4,190.5h38.4l-31.1,70.2c4.3,2.3,36.4-6.7,31.1,7.9h-38.4c-4.4-8.5,23.3-61.7,25.9-69.2h-25.9"/>
	<path class="st0" d="M111.9,190c-3.2-1-19.7-6-29.9,5.5c-16.8,18.7-6.2,70.5,10,74c5.4,1.1,11.6-1.1,18.4-8.3
		c4.5-6.7,4.1-15.6,0.5-19.6c-3.5-3.8-8.7-1.9-9.2-1.7c-2.3,5.7-1.6,10.8,0.3,11.9c1.9,1.2,4.9-1.9,5.1-2c0.2,4.8-0.9,6.7-1.7,7.4
		c-3.4,3.6-12-0.3-21.4-10.4c-0.9-5-1.4-9.1-1.7-12.1c-1.2-12.1-1.9-19.6,1.4-26.5c0.5-1,1.7-3.5,4-5.7c8.1-8.2,19.5-3.7,21.2-2.9"
		/>
	<path class="st0" d="M107.2,239.9c7-1.3,9-0.4,9.4,0.8c0.4,1.3-1,3-1.1,7c0,1.4,0.1,2.5,0.2,3.2c-2.8-0.4-5.5-0.7-8.3-1.1"/>
	<path class="st0" d="M119.6,190.5c3.9,2.6-9.3,89.1,7.9,78.1c0.2-52.4-0.9-78.7-3.2-78.9c-0.2,0-0.5,0.2-0.8,0.8"/>
	<path class="st0" d="M138,191.1c3.9,2.6-9.3,89.1,7.9,78.1c0.2-52.4-0.9-78.7-3.2-78.9c-0.2,0-0.5,0.2-0.8,0.8"/>
	<path class="st0" d="M138.4,190.4c3.4,2.6-8.1,89.1,7,78.1c-9.5,2.7,2.2-82.9-3.5-78.1"/>
	<path class="st0" d="M122.2,230.7c2.6,1.8,19.5-4.9,15.9,5.8c0,0-16.2-4.2-16.7,0"/>
	<path class="st0" d="M124.4,227.2c2.6,2.6,19.5-7.1,15.9,8.5c0,0-16.2-6-16.7,0"/>
	<path class="st1" d="M241.5,194c-16.4-2.5-3.1,71.9-3.1,71.9c-26.8,9.6-6.3-68.5-12.4-70.4C222.7,192.5,239.8,194.5,241.5,194z"/>
	<path class="st1" d="M241.5,258.5c1.5,5.6-25.6,0-25.6,0c-4.8,18.3,22.3,6.8,25.6,9.8"/>
	<path class="st1" d="M241.5,200.5c1.5-5.6-25.6,0-25.6,0c-4.8-18.2,22.3-6.8,25.6-9.8"/>
	<path class="st1" d="M227.8,261.2c-0.8,2.1,5,2.7,3.9,0"/>
	<path class="st1" d="M231.5,197.4l4.4-4.2c-1.8,1.1-10.1-1.4-8.1,4.7"/>
	<path class="st1" d="M230.8,256.8c-1.6,1.3,6.3,11.3-0.5,9.4l-2.5-12.8c-0.1-0.3-0.5,15-2.1,12.8"/>
	<path class="st0" d="M39.1,266.7c0,0-8.1-73.9,0-75.4s-15.8-2.7-15.8-2.7s15.3,78.5,0,78.3"/>
	<path class="st0" d="M39.1,191.6c15.5,12.7,17.5-13.6,14.9,10.5c-11.7-3.6-37.5-8.6-49.5-10.5c0,0,0.7-6.5-4.5-10.2"/>
	<path class="st0" d="M40.8,188.6"/>
	<path class="st0" d="M37.1,189.5c4.2,0,14.5,5.2,18.1,0c0.9,7.5-9.1,5.4-12.3,6.9"/>
	<g>
		<path class="st1" d="M259.7,266.7c0,0,8.4-73.9,0-75.4c-8.4-1.5,16.2-2.7,16.2-2.7s-15.7,78.5,0,78.3"/>
		<path class="st1" d="M260,191.4c-16.1,13.4-18.2-14.4-15.5,11.1c12.2-3.7,39-9,51.5-11.1c0,0-0.8-6.9,4.6-10.8"/>
		<path class="st1" d="M258,188.6"/>
		<path class="st1" d="M261.8,189.5c-4.4,0-14.9,5.2-18.6,0c-0.9,7.5,9.4,5.4,12.7,6.9"/>
	</g>
</g>
<path class="st2" d="M187.6,84.3c6.8,3.5,7.1,5.8,0,9.2C180.8,90.1,180.9,87.7,187.6,84.3z"/>
<path class="st2" d="M142.2,132.9c13-1.4,23.3-3.9,31.1-6.4c7.1-2.2,20.3-6.7,19.8-9.8c-0.2-1.2-2.6-2.7-13.5-3.2
	c-7.4,3.8-23.8,10.8-44.3,8.2c-7.7-1-14.1-3.1-19.2-5.3c1.7-2.7,4.3-6.6,8-11c9.7-11.5,17.4-15.2,23.8-20.9
	c10.4-9.1,19.8-25.5,19.2-41.8C166.3,17.3,141.7,1.8,138.7,0c6.3,9.9,14,24.7,17.3,43.7c0.2,1.2,1,3.4,0.9,6.2
	c-0.2,5.4-2.9,9.5-4.8,12.2c-7.3,10.2-13.6,15.3-13.6,15.3c-36.3,29.2-38.5,36.2-37.5,40.5c0.3,1.2,0.7,2.2,1.4,3
	c3.1,3.9,11.4,7.9,19.8,10C130.2,133,137.7,133.1,142.2,132.9z"/>
<path class="st2" d="M72.4,125.5c6.8,3.5,7.1,5.8,0,9.2C65.6,131.3,65.7,128.9,72.4,125.5z"/>
<path class="st2" d="M67.3,112.8c6.8,3.5,7.1,5.8,0,9.2C60.5,118.5,60.5,116.2,67.3,112.8z"/>
<path class="st2" d="M201.6,147.8c6.8,3.5,7.1,5.8,0,9.2C194.8,153.6,194.9,151.2,201.6,147.8z"/>
<path class="st2" d="M235.9,131.3c6.8,3,7.1,5.1,0,8C229.1,136.4,229.1,134.3,235.9,131.3z"/>
<path class="st2" d="M189.2,155.6c6.8,3.5,7.1,5.8,0,9.2C182.4,161.3,182.4,159,189.2,155.6z"/>
<path class="st2" d="M215.3,63c6.8,3.5,7.1,5.8,0,9.2C208.5,68.8,208.6,66.4,215.3,63z"/>
<path class="st2" d="M205,55.6c6.8,3.5,7.1,5.8,0,9.2C198.2,61.4,198.3,59,205,55.6z"/>
<path class="st2" d="M250.6,92.6c-1.1-1.9-2.9-4.5-5.6-7.1c-1.2-1.1-2.6-2.3-5-3.8c-2.8-1.8-7.9-4.7-15.6-7.2
	c1.1,3.3,2.9,7.6,5.5,12.3c3,5.4,6,9.3,7.7,11.5c5.8,7.4,10,10.8,8.9,13.2c-0.4,0.9-1.5,1.3-2.3,1.6c-8.2,2.3-43.9,2.5-48.7,2.5
	c8.4-4.7,12.3-10.8,9.1-14.9c-4.4-5.6-23.3-8.8-41.3-2.6c1.8,4,5.1,10.3,11.3,16c25.7,23.5,77.5,15.2,83.1-1.8
	C259,108.4,258.6,102.4,250.6,92.6z M188.9,109.4l-7.7-6.2C193.2,103.1,195.1,102.8,188.9,109.4z"/>
<path class="st2" d="M253.6,129.1"/>
<path class="st2" d="M251.5,135.3c-7.1,9.3-32,39.4-76.3,49.9c-56.4,13.4-100.5-15.4-107.8-20.4c15.1,5.7,25.9,8.7,32.1,10.3
	c3.5,0.9,9.5,2.4,15.7,3.7c6.2,1.4,11.4,2.5,12.6,2.7c5.5,1.1,17,2.1,39.4-4c4.4-1.2,22.9-6.4,48.9-20.3
	C225.5,152.3,237.8,145.1,251.5,135.3z"/>
<path class="st2" d="M183.8,131.3c1.3,0.2,15.1,3.1,16,8.6c0.2,1.1-0.3,3.4-6.6,7.7c-12.5,8.4-26.5,9.9-44.5,11.6
	c-2.2,0.2-6.8,0.6-12.6,0.9c-6.4,0.3-11.4,0.3-14,0.3c0,0-6.8-0.1-13.4-0.6c-5.3-0.4-3.7-0.7-5.8-0.7c-1.2-0.1-2-0.3-3.7-0.8
	c-0.6-0.2-0.8-0.3-0.8-0.4c-0.2-1,7.2-3.4,7-3.9c0,0,0,0,0,0c-0.1-0.2-0.4-0.3-0.7-0.3c2.7,0,6.7,0.1,11.4,0.1
	c30.9,0,40.7-1.4,45.6-2.2c12.3-2,23.2-4.6,25.9-10.7C188.5,138.9,188.5,135.8,183.8,131.3z"/>
<path class="st2" d="M113.6,140.1c15.6,1.4,14.8,7.9,15.9,15.4c-6.1,4.6-9,4.2-9.7,4.1c-2.3-0.4-2.7-2.8-3.8-8
	C115,146.6,114.2,142.6,113.6,140.1z"/>
<path class="st2" d="M106.2,153.7c0.3,1.6,0.1,2.6-0.4,3.3c-0.3,0.5-1.2,0.6-1.3,1.1c-0.1,0.4,0.3,0.6,0.3,0.8
	c-0.1,0.6-3.8,0.7-13-0.6c-3.5-0.5-5.6-0.8-8.4-1.5c-1.6-0.4-4.2-1-7.4-2.3c-2.1-0.8-4.2-1.6-6.8-3.2c-1.7-1-3.9-2.6-6.3-5
	c-22.2-29.1-17.1-45.9-15.6-49.8c7.1-19.3,49.6-40.1,59.8-45.8c1.2-0.7,2.6-1.4,4.4-2.7c17.9-12.1,12.3-27.5,16.5-27.8
	c1.8-0.2,4.9,2.4,10.8,13.4c-2.3,3.6-4.6,6.5-6.3,8.6c-2.5,3-5.4,6.5-10,10.2c-2.5,2-5.3,3.9-6.9,5c-2.2,1.5-3.8,2.6-4.4,2.9
	c-2.1,1.3-4,2.4-5.5,3.2c-2.1,1.2-3.8,2.1-5,2.8c-2.5,1.4-2.6,1.6-4.4,2.6c-2,1.1-2.6,1.3-4.7,2.6c-0.2,0.1-1.4,0.8-2.9,1.7
	c-3,1.9-5.2,3.5-6.2,4.2c-7.6,5.6-7.2,4.9-9.5,6.8C69.8,87,66,90.2,62.9,95.4c-1.2,2.1-3.6,6.6-4.3,12.6c-1.4,11.1,3.6,20.2,6,24.5
	c4.2,7.7,8.7,10.9,10.5,12C85.5,151.3,99.8,153.1,106.2,153.7z"/>
<path class="st2" d="M194.6,50.4c-3.7-5.1-12.3-14.2-22.8-15.4C175.1,40.4,183.6,49.1,194.6,50.4z"/>
<path class="st2" d="M123.9,158.9"/>
</svg>
