<?xml version="1.0" encoding="utf-8"?>
<!-- Generator: Adobe Illustrator 24.1.2, SVG Export Plug-In . SVG Version: 6.00 Build 0)  -->
<svg version="1.1" id="Calque_2" xmlns="http://www.w3.org/2000/svg" xmlns:xlink="http://www.w3.org/1999/xlink" x="0px" y="0px"
	 viewBox="0 0 300 300" style="enable-background:new 0 0 300 300;" xml:space="preserve">
<style type="text/css">
	.st0{fill:#009245;}
	.st1{fill:#FF7C00;}
	.st2{fill:#E27113;}
</style>
<g>
	<g>
		<path class="st0" d="M147.07,268.58l15.59-78.1c-2.95,3.29,21.97,90.68,5.07,78.1c-0.01,0-5.59-37.02-5.59-37.02l-8.18,37.02"/>
		<path class="st0" d="M159.52,243.38c4.41-1,4.98,1.31,5.36,6.41c0,0-6.78,0-6.78,0"/>
	</g>
	<g>
		<path class="st0" d="M44.72,267.83l16.61-78.1c-3.14,3.29,23.41,90.68,5.4,78.1c-0.01,0-5.96-37.02-5.96-37.02l-8.72,37.02"/>
		<path class="st0" d="M57.99,242.63c4.7-1,5.3,1.31,5.71,6.41c0,0-7.22,0-7.22,0"/>
	</g>
	<path class="st1" d="M175.42,190.48h38.37l-31.1,70.24c4.25,2.31,36.42-6.66,31.1,7.86c0,0-38.37,0-38.37,0
		c-4.44-8.49,23.26-61.68,25.85-69.19c0,0-25.85,0-25.85,0"/>
	<path class="st0" d="M111.87,190.01c-3.23-1.04-19.65-5.96-29.93,5.49c-16.81,18.71-6.21,70.52,10.04,73.99
		c5.4,1.15,11.62-1.08,18.4-8.25c4.54-6.73,4.09-15.63,0.46-19.62c-3.47-3.81-8.73-1.91-9.19-1.73c-2.33,5.67-1.55,10.77,0.29,11.95
		c1.91,1.22,4.92-1.85,5.11-2.04c0.2,4.78-0.94,6.65-1.68,7.45c-3.37,3.64-11.96-0.28-21.42-10.42c-0.89-4.96-1.4-9.13-1.7-12.14
		c-1.22-12.06-1.91-19.57,1.36-26.46c0.47-1,1.74-3.48,3.97-5.73c8.11-8.17,19.5-3.66,21.22-2.95"/>
	<path class="st0" d="M107.19,239.89c6.98-1.31,9.01-0.42,9.4,0.81c0.42,1.31-0.99,2.97-1.07,6.99c-0.03,1.36,0.1,2.47,0.22,3.2
		c-2.76-0.37-5.51-0.73-8.27-1.1"/>
	<path class="st0" d="M119.55,190.48c3.91,2.55-9.25,89.07,7.95,78.1c0.2-52.41-0.87-78.71-3.21-78.89
		c-0.24-0.02-0.5,0.24-0.77,0.79"/>
	<path class="st0" d="M137.96,191.11c3.91,2.55-9.25,89.07,7.95,78.1c0.2-52.41-0.87-78.71-3.21-78.89
		c-0.24-0.02-0.5,0.24-0.77,0.79"/>
	<path class="st0" d="M138.38,190.43c3.44,2.55-8.15,89.07,7,78.1c-9.53,2.72,2.18-82.92-3.5-78.1"/>
	<path class="st0" d="M122.23,230.68c2.63,1.76,19.49-4.86,15.86,5.84c0,0-16.15-4.16-16.66,0"/>
	<path class="st0" d="M124.37,227.19c2.63,2.55,19.49-7.05,15.86,8.46c0,0-16.15-6.04-16.66,0"/>
	<path class="st1" d="M241.53,193.99c-16.38-2.5-3.1,71.95-3.1,71.95c-26.84,9.65-6.31-68.53-12.41-70.35
		C222.71,192.52,239.76,194.54,241.53,193.99z"/>
	<path class="st1" d="M241.47,258.54c1.5,5.59-25.56,0-25.56,0c-4.81,18.29,22.33,6.82,25.62,9.83"/>
	<path class="st1" d="M241.47,200.5c1.5-5.58-25.56,0-25.56,0c-4.81-18.24,22.33-6.8,25.62-9.81"/>
	<path class="st1" d="M227.8,261.24c-0.84,2.13,5.03,2.7,3.95,0"/>
	<path class="st1" d="M231.54,197.37l4.39-4.22c-1.79,1.09-10.07-1.38-8.13,4.67"/>
	<path class="st1" d="M230.76,256.8c-1.64,1.26,6.3,11.34-0.49,9.4c0,0-2.47-12.76-2.47-12.76c-0.12-0.3-0.54,15.01-2.11,12.81"/>
	<path class="st0" d="M39.11,266.66c0,0-8.11-73.95,0-75.43s-15.75-2.73-15.75-2.73s15.27,78.47,0,78.26"/>
	<path class="st0" d="M39.09,191.56c15.49,12.74,17.45-13.65,14.89,10.49c-11.7-3.55-37.5-8.56-49.52-10.49
		c0,0,0.74-6.54-4.47-10.19"/>
	<path class="st0" d="M40.79,188.56"/>
	<path class="st0" d="M37.07,189.51c4.24,0.04,14.47,5.24,18.08,0c0.89,7.51-9.12,5.43-12.29,6.88"/>
	<g>
		<path class="st1" d="M259.69,266.66c0,0,8.36-73.95,0-75.43c-8.36-1.48,16.22-2.73,16.22-2.73s-15.73,78.47,0,78.26"/>
		<path class="st1" d="M260,191.36c-16.12,13.44-18.16-14.4-15.5,11.07c12.18-3.74,39.02-9.03,51.52-11.07c0,0-0.78-6.9,4.65-10.75"
			/>
		<path class="st1" d="M257.96,188.56"/>
		<path class="st1" d="M261.79,189.51c-4.37,0.04-14.92,5.24-18.63,0c-0.92,7.51,9.4,5.43,12.66,6.88"/>
	</g>
</g>
<path class="st2" d="M173.63,79.71c3.52,3.19,3.7,5.33-0.02,8.46C170.09,85.02,170.11,82.85,173.63,79.71z"/>
<path class="st2" d="M149.88,124.43c6.78-1.31,12.13-3.58,16.2-5.85c1.02-0.57,11.24-6.34,10.3-9c-0.46-1.31-3.47-1.47-6.19-1.36
	c-9.71,11.26-31.82,16.32-36.25-0.98c3.83-4.35,9.01-10.84,13.99-19.4c6.77-11.63,15.64-26.85,14.97-46.43
	c-0.62-18.24-9.24-32.03-14.83-39.32c3.27,9.09,7.29,22.77,8.98,40.23c0.28,2.9,0.42,4.34,0.45,5.73
	c0.75,32.02-34.72,51.06-28.36,65.47c1.59,3.6,5.95,7.26,10.31,9.16C143.63,124.51,147.53,124.58,149.88,124.43z"/>
<path class="st2" d="M113.69,117.62c3.52,3.19,3.7,5.33-0.02,8.46C110.15,122.92,110.18,120.75,113.69,117.62z"/>
<path class="st2" d="M111.01,105.88c3.52,3.19,3.7,5.33-0.02,8.46C107.48,111.19,107.5,109.02,111.01,105.88z"/>
<path class="st2" d="M180.92,138.16c3.52,3.19,3.7,5.33-0.02,8.46C177.38,143.47,177.41,141.3,180.92,138.16z"/>
<path class="st2" d="M204.42,117.62c3.52,3.19,3.7,5.33-0.02,8.46C200.88,122.92,200.9,120.75,204.42,117.62z"/>
<path class="st2" d="M174.44,145.27c3.52,3.19,3.7,5.33-0.02,8.46C170.9,150.58,170.92,148.4,174.44,145.27z"/>
<path class="st2" d="M188.06,60.09c3.52,3.19,3.7,5.33-0.02,8.46C184.52,65.39,184.54,63.22,188.06,60.09z"/>
<path class="st2" d="M182.7,53.27c3.52,3.19,3.7,5.33-0.02,8.46C179.16,58.58,179.18,56.41,182.7,53.27z"/>
<path class="st2" d="M204.8,87.45c-5.11-12.08-1.23-9.54-12.01-16.87c0.86,8.23,4.35,15.05,7.24,20.88
	c4.38,8.82,5.05,12.27,3.65,14.88c-3.37,6.27-20.21,3.24-26,2.05c4.39-4.28,6.41-9.93,4.72-13.69c-2.3-5.12-12.11-8.11-21.47-2.35
	C170.79,133.04,227.84,123.82,204.8,87.45z M174.3,102.8l-4-5.72C176.54,97.01,177.5,96.72,174.3,102.8z"/>
<path class="st2" d="M207.97,120.9"/>
<path class="st2" d="M206.87,126.66c-0.63,34.93-77.4,73.6-95.82,27.19C143.9,189.63,184.67,158.47,206.87,126.66z"/>
<path class="st2" d="M171.62,122.95c0.66,0.23,7.84,2.85,8.35,7.93c0.32,3.21-2.19,5.79-3.45,7.08
	c-9.01,9.28-31.63,10.82-37.49,11.12c-1.68,0.06-8.03,0.24-10.98-0.94c-0.38-0.15-0.85-0.39-0.94-0.79
	c-0.27-1.32,3.86-3.18,3.66-3.57c-0.02-0.04-0.09-0.08-0.34-0.04c23.79,1.63,40.98-3.4,43.18-12.01
	C174.07,129.91,174.09,127.07,171.62,122.95z"/>
<path class="st2" d="M135.1,131.06c8.13,1.28,7.69,7.31,8.28,14.21c-3.19,4.25-4.7,3.91-5.04,3.8c-1.21-0.41-1.41-2.6-1.96-7.4
	C135.86,137.05,135.4,133.37,135.1,131.06z"/>
<path class="st2" d="M131.24,143.54c0.3,2.56-0.37,3.57-0.89,4.04c-2.92,2.57-11.65-3.08-13.92-4.55c-3.58-2.32-6.16-4.71-7.74-6.34
	c-2.47-4.02-13.06-22.26-8.13-45.87c3.72-17.79,25.82-36.92,31.14-42.11c0.62-0.61,1.36-1.31,2.31-2.45
	c9.29-11.14,6.38-25.28,8.6-25.62c0.93-0.14,2.55,2.17,5.6,12.33c-0.97,2.43-4.77,11.61-10.73,18.9c-3.61,4.42-7.73,8.08-7.73,8.08
	c-1.72,1.53-2.16,1.76-3.57,3.06c-0.98,0.9-3.84,3.61-7.38,8.68c-4.3,6.16-7.75,11.11-10.07,18.22c-4.99,15.3-0.83,28.69,0.85,34.13
	c2.21,7.12,4.55,9.99,5.44,11.02C120.47,141.32,127.91,143.01,131.24,143.54z"/>
<path class="st2" d="M177.26,48.51c-1.9-4.67-6.4-13.03-11.89-14.22C167.13,39.27,171.54,47.3,177.26,48.51z"/>
<path class="st2" d="M140.47,148.38"/>
</svg>
