<?xml version="1.0" encoding="utf-8"?>
<!-- Generator: Adobe Illustrator 24.1.2, SVG Export Plug-In . SVG Version: 6.00 Build 0)  -->
<svg version="1.1" id="Calque_2" xmlns="http://www.w3.org/2000/svg" xmlns:xlink="http://www.w3.org/1999/xlink" x="0px" y="0px"
	 viewBox="0 0 300 300" style="enable-background:new 0 0 300 300;" xml:space="preserve">
<style type="text/css">
	.st0{opacity:0.5;}
	.st1{fill:#89512B;}
	.st2{fill:#EAEA24;}
	.st3{fill:#2860DD;}
	.st4{fill:#009245;}
	.st5{fill:#D9E021;}
</style>
<g class="st0">
	<polyline class="st1" points="-2.14,83.96 295.72,44.73 303.73,44.73 308.61,133.33 -4.71,135.38 	"/>
	<path class="st1" d="M9.41,83.28h12.29c0,0,0.78,0.51,11.5-3.32s31.37-12,31.37-12l4.44-2.55h3.4l1.31-1.79h2.88
		c0,0,2.35-2.04,1.83-2.81c-0.52-0.77,2.09-1.53,4.97-1.53c2.88,0,6.01-1.53,7.06-1.53c1.05,0,16.73-5.87,16.73-5.87
		s15.16-4.6,19.87-5.36c4.71-0.77,9.41-2.81,14.12-4.6c4.71-1.79,10.28-7.91,10.28-7.91s3.31-2.55,4.88-3.83
		c1.57-1.28,4.71-1.02,12.55-1.28c7.84-0.26,32.67,0,32.67,0l33.72,1.53l20.91,3.06l3.66,2.3l10.72,3.83c0,0,10.72,1.79,11.76,2.04
		s9.67,2.3,9.67,2.3l11.76,0.77L-2.14,83.96L9.41,83.28z"/>
	<polygon class="st1" points="305,133.35 -2.14,135.38 303.73,44.73 	"/>
	<path class="st2" d="M187.11,44.48l-7.62,8.34l-16.38-0.43v0.85h-2.53v-1.11c0,0,1.31-1.19,1.92-0.94c0.61,0.26,0.09,0,2-2.55
		c1.92-2.55,4.01,0,4.01,0l-1.13,2.04l3.22,0.09l1.57-0.26l1.13,0.17l1.13-0.09l5.75-6.13h2.18l-5.23,6.3l1.92,0.09l5.92-6.38"/>
	<polygon class="st2" points="209.63,57.75 203.36,64.52 201.27,64.52 207.93,57.75 	"/>
	<polyline class="st2" points="136.02,64.05 128.52,64.05 128.86,63.09 135.92,63.09 	"/>
	<path class="st2" d="M205.45,57.75l-6.53,6.77l-1.96,1.4l-2.74-0.64l-2,0.64c0,0-0.22,1.02-1.52,2.04c-1.31,1.02-7.97,0-7.97,0
		l1.7-1.91l4.44,0.26c0,0,2.48-0.26,2.22-1.79h-3.96l3.96-4.6l5.31,0.13l-2.31,3.57l3.09,0.09l6.1-5.96H205.45z"/>
	<path class="st2" d="M184.89,64.52l3.66-4.64h-5.14l2.57-3.66h-2.57l-5.31,6.04l-2.61,0.09l-0.96,0.09l-1.92,2.09
		c0,0-0.61,0.47-1.83,0.55c-1.22,0.09-4.18,0-4.18,0l0.96-1.36l-2.35,0.09l-1.31,2.3c0,0,0.26,0.26,0.87,0.94h1.39h4.18
		c0,0,3.83-0.6,3.92-1.28l1.13-1.23H184.89z"/>
	<polyline class="st2" points="170.08,62.09 171.82,62.09 172.43,61.14 170.08,61.14 169.55,61.62 	"/>
	<polygon class="st2" points="161.36,56.22 152.91,64.05 151.08,64.05 159.36,56.22 	"/>
	<path class="st2" d="M157.79,56.22l-8.02,7.83h-13.33c0,0-0.44,1.13-0.52-0.96h-7.06l0.44-1.47l7.23,0.01l0.52,0l1.74-0.01
		l5.58-5.39h1.92l-5.23,5.39h5.14l1.57-1.9h1.83l-1.22,1.9h1.39l5.66-5.39H157.79z"/>
	<polygon class="st2" points="139.49,56.22 135.57,58.86 136.53,61.62 137.53,61.62 137.53,59.45 141.06,57.24 	"/>
	<path class="st3" d="M-2.14,106.51c0,0,45.53-1.7,57.38,0s44.61,3.74,46.35,5.45c1.74,1.7,12.55,2.72,12.9,4.09s1.05,2.38,0,3.74
		c-1.05,1.36-5.58,2.72-9.76,3.4c-4.18,0.68-84.43,15.32-106.86,11.57"/>
	<path class="st2" d="M146.2,61.61c0,0-0.96-0.8,0-1.73c0.96-0.94,1.57-0.6,1.57-0.6s2.79,0,1.83,0.43c0,0,1.35-0.06,0.2,0.71
		c0,0,0.32,1.06-0.81,1.2"/>
	<polygon class="st2" points="192.21,44.48 184.63,52.82 182.01,52.82 188.81,44.48 	"/>
	<polyline class="st1" points="306.52,44.73 305,104.39 301.29,44.73 	"/>
</g>
<g>
	<g>
		<path class="st4" d="M147.07,214.22l14.12-72.23c-2.67,3.04,19.91,83.87,4.59,72.23c0,0-5.06-34.24-5.06-34.24l-7.41,34.24"/>
		<path class="st4" d="M158.35,190.91c3.99-0.92,4.51,1.21,4.86,5.93c0,0-6.14,0-6.14,0"/>
	</g>
	<g>
		<path class="st4" d="M48.97,213.53l14.12-72.23c-2.67,3.04,19.91,83.87,4.59,72.23c0,0-5.06-34.24-5.06-34.24l-7.41,34.24"/>
		<path class="st4" d="M60.25,190.22c3.99-0.92,4.51,1.21,4.86,5.93c0,0-6.14,0-6.14,0"/>
	</g>
	<path class="st5" d="M178.24,141.99h34.85l-28.24,64.96c3.86,2.13,33.08-6.16,28.24,7.27c0,0-34.84,0-34.84,0
		c-4.03-7.86,21.12-57.05,23.48-63.99c0,0-23.48,0-23.48,0"/>
	<path class="st4" d="M96.45,141.99c-43.76-1.02-23.27,102.14,13.94,65.45c-0.13-11.54,2.27-15.07-8.44-13.55
		c-1.39,8.35,1.52,3.89,5.14,2.96c0.18,17.72-25,13.92-28.25-2.97c-8.81-15.22-2.72-29.23,2.94-39.29c3.3-1.9,17.24-5.36,20.17-5.82
		c7.27-0.79,9.37,2.38,8.44-6.79"/>
	<path class="st4" d="M107.47,193.88c2.33,0.7,9.61-2.38,8.27,3.98c0,0-8.27-1.01-8.27-1.01"/>
	<path class="st4" d="M119.55,141.99c3.91,2.36-9.25,82.38,7.95,72.23c-10.82,2.51,2.47-76.69-3.98-72.23"/>
	<path class="st4" d="M138.38,141.94c3.44,2.36-8.15,82.38,7,72.23c-9.53,2.51,2.18-76.69-3.5-72.23"/>
	<path class="st4" d="M122.23,179.17c2.63,1.63,19.49-4.49,15.86,5.4c0,0-16.15-3.85-16.66,0"/>
	<path class="st5" d="M237.44,145.23c-12.52-2.31-2.37,66.55-2.37,66.55c-20.52,8.93-4.82-63.38-9.48-65.07
		C223.06,143.87,236.09,145.74,237.44,145.23z"/>
	<path class="st5" d="M241.47,207.43c1.5,3.86-25.56,0-25.56,0c-4.81,12.62,22.33,4.71,25.62,6.79"/>
	<path class="st5" d="M241.47,148.77c1.5-3.86-25.56,0-25.56,0c-4.81-12.62,22.33-4.71,25.62-6.79"/>
	<path class="st5" d="M227.8,207.43c-0.84,1.97,5.03,2.5,3.95,0"/>
	<path class="st5" d="M231.54,148.36l4.39-3.9c-1.79,1-10.07-1.28-8.13,4.31"/>
	<path class="st5" d="M230.76,203.32c-1.64,1.17,6.3,10.49-0.49,8.69c0,0-2.47-11.8-2.47-11.8c-0.12-0.27-0.54,13.88-2.11,11.85"/>
	<g>
		<path class="st4" d="M39.46,212.44c0,0-6.39-68.39,0-69.76s-12.4-2.52-12.4-2.52s12.03,72.57,0,72.38"/>
		<path class="st4" d="M39.46,142.68c15.64,10.4,17.61-11.15,15.03,8.57c-11.81-2.9-37.86-6.99-49.99-8.57c0,0,0.75-5.34-4.51-8.32"
			/>
		<path class="st4" d="M40.79,140.21"/>
		<path class="st4" d="M37.07,141.09c4.24,0.03,14.47,4.85,18.08,0c0.89,6.94-9.12,5.02-12.29,6.36"/>
	</g>
	<g>
		<path class="st5" d="M260.54,212.44c0,0,6.39-68.39,0-69.76c-6.39-1.37,12.4-2.52,12.4-2.52s-12.03,72.57,0,72.38"/>
		<path class="st5" d="M260.54,142.68c-15.64,10.4-17.61-11.15-15.03,8.57c11.81-2.9,37.86-6.99,49.99-8.57c0,0-0.75-5.34,4.51-8.32
			"/>
		<path class="st5" d="M259.21,140.21"/>
		<path class="st5" d="M262.93,141.09c-4.24,0.03-14.47,4.85-18.08,0c-0.89,6.94,9.12,5.02,12.29,6.36"/>
	</g>
</g>
</svg>
